<svg width="169" height="56" viewBox="0 0 169 56" fill="none" xmlns="http://www.w3.org/2000/svg">
<g clip-path="url(#clip0)">
<path d="M155.542 5.23003e-05H13.4657C12.9478 5.23003e-05 12.4361 5.23004e-05 11.9196 0.0028523C11.4873 0.0056523 11.0583 0.0137863 10.6218 0.0206323C9.67348 0.0316948 8.72738 0.114399 7.79173 0.268026C6.85739 0.424998 5.95233 0.720934 5.10714 1.14583C4.26299 1.57431 3.49166 2.13109 2.82114 2.79595C2.1471 3.45894 1.58524 4.22528 1.15716 5.06548C0.727893 5.90401 0.43024 6.80257 0.274478 7.73013C0.117235 8.65651 0.0326215 9.59358 0.0213961 10.5329C0.00829013 10.9622 0.00690608 11.3928 0 11.8221V44.1821C0.00690608 44.6168 0.00829013 45.0379 0.0213961 45.4728C0.032625 46.4121 0.117239 47.3491 0.274478 48.2754C0.42981 49.2035 0.727481 50.1026 1.15716 50.9414C1.58505 51.7789 2.14699 52.5421 2.82114 53.2015C3.48912 53.8693 4.26094 54.4264 5.10714 54.8516C5.95232 55.2777 6.85729 55.5754 7.79173 55.7348C8.72754 55.8872 9.67354 55.9699 10.6218 55.9823C11.0583 55.9918 11.4873 55.9973 11.9196 55.9973C12.4361 56.0001 12.9478 56.0001 13.4657 56.0001H155.542C156.049 56.0001 156.565 56.0001 157.073 55.9973C157.503 55.9973 157.944 55.9918 158.375 55.9823C159.321 55.9706 160.266 55.8878 161.199 55.7348C162.137 55.5742 163.045 55.2766 163.894 54.8516C164.74 54.4262 165.511 53.869 166.178 53.2015C166.851 52.5396 167.414 51.7769 167.847 50.9414C168.273 50.102 168.568 49.203 168.721 48.2754C168.879 47.3489 168.966 46.4121 168.983 45.4728C168.989 45.0379 168.989 44.6168 168.989 44.1821C169 43.6735 169 43.1677 169 42.6508V13.3506C169 12.8379 169 12.3293 168.989 11.8221C168.989 11.3928 168.989 10.9622 168.983 10.5329C168.966 9.59344 168.879 8.65658 168.721 7.73007C168.568 6.80305 168.273 5.90456 167.847 5.06542C166.975 3.38133 165.593 2.01049 163.894 1.1457C163.045 0.721847 162.137 0.425989 161.199 0.2679C160.266 0.113596 159.321 0.0308632 158.375 0.0204363C157.944 0.0136043 157.503 0.0054003 157.073 0.0026703C156.565 -0.0001297 156.049 -0.0001297 155.542 -0.0001297V5.23003e-05Z" fill="#A6A6A6"/>
<path d="M11.9265 54.775C11.4962 54.775 11.0763 54.7695 10.6494 54.76C9.76498 54.7486 8.88264 54.6723 8.00961 54.5317C7.19556 54.3927 6.40696 54.1342 5.66982 53.7646C4.93945 53.3981 4.27328 52.9176 3.69686 52.3414C3.11209 51.772 2.62524 51.1115 2.2556 50.3863C1.8819 49.6563 1.62327 48.8739 1.48873 48.0662C1.34344 47.1984 1.26483 46.3208 1.25359 45.4412C1.24463 45.1459 1.23291 44.1629 1.23291 44.1629V11.8221C1.23291 11.8221 1.24539 10.8541 1.25366 10.5697C1.26443 9.69147 1.34258 8.81531 1.48743 7.94882C1.62222 7.13895 1.88105 6.35425 2.25495 5.62188C2.62323 4.89712 3.10737 4.2362 3.68862 3.66475C4.26922 3.08787 4.93751 2.60484 5.66913 2.23329C6.40457 1.86493 7.19168 1.60822 8.00409 1.47178C8.87999 1.32977 9.76538 1.25299 10.6528 1.24209L11.9272 1.225H157.066L158.355 1.24278C159.235 1.25314 160.112 1.32923 160.98 1.4704C161.801 1.60856 162.596 1.86706 163.34 2.23739C164.806 2.98618 165.998 4.17083 166.75 5.6253C167.118 6.35261 167.373 7.13091 167.506 7.93378C167.653 8.80739 167.735 9.69043 167.752 10.5759C167.756 10.9724 167.756 11.3982 167.756 11.8221C167.767 12.3471 167.767 12.8468 167.767 13.3506V42.6507C167.767 43.1593 167.767 43.6556 167.756 44.156C167.756 44.6113 167.756 45.0283 167.75 45.4576C167.734 46.3272 167.653 47.1945 167.509 48.0525C167.377 48.866 167.12 49.6545 166.746 50.3905C166.374 51.1079 165.89 51.7626 165.312 52.3305C164.735 52.9098 164.068 53.3931 163.336 53.762C162.594 54.1343 161.8 54.3938 160.98 54.5317C160.107 54.673 159.225 54.7493 158.34 54.76C157.927 54.7695 157.493 54.775 157.073 54.775L155.542 54.7778L11.9265 54.775Z" fill="#262626"/>
<path d="M34.9808 28.421C34.996 27.2524 35.3091 26.1067 35.891 25.0904C36.4729 24.074 37.3047 23.2201 38.309 22.6081C37.671 21.7048 36.8293 20.9615 35.8509 20.4372C34.8724 19.9128 33.784 19.6218 32.6723 19.5873C30.3007 19.3406 28.0016 20.9941 26.7931 20.9941C25.5612 20.9941 23.7005 19.6118 21.6968 19.6527C20.4008 19.6942 19.1378 20.0678 18.0307 20.7371C16.9236 21.4063 16.0103 22.3485 15.3798 23.4717C12.6484 28.1595 14.6858 35.049 17.3022 38.8382C18.6113 40.6937 20.1412 42.7663 22.143 42.6928C24.1019 42.6123 24.8335 41.4546 27.1981 41.4546C29.5408 41.4546 30.2272 42.6928 32.2697 42.6461C34.3717 42.6123 35.6961 40.7824 36.9592 38.9093C37.8997 37.5872 38.6235 36.126 39.1036 34.5798C37.8824 34.0678 36.8403 33.2107 36.1071 32.1155C35.3739 31.0203 34.9822 29.7354 34.9808 28.421Z" fill="white"/>
<path d="M31.1229 17.0952C32.269 15.7314 32.8337 13.9783 32.6969 12.2084C30.9459 12.3907 29.3285 13.2203 28.1669 14.5318C27.599 15.1726 27.164 15.918 26.8868 16.7254C26.6097 17.5329 26.4958 18.3866 26.5517 19.2378C27.4275 19.2467 28.2939 19.0585 29.0857 18.6874C29.8776 18.3163 30.5741 17.7719 31.1229 17.0952Z" fill="white"/>
<path d="M59.7431 37.9955H53.0582L51.4528 42.6945H48.6213L54.9532 25.3093H57.895L64.2268 42.6945H61.3471L59.7431 37.9955ZM53.7505 35.8271H59.0494L56.4372 28.201H56.3641L53.7505 35.8271Z" fill="white"/>
<path d="M77.9014 36.3576C77.9014 40.2965 75.7747 42.8271 72.5653 42.8271C71.7524 42.8693 70.9438 42.6837 70.2323 42.2915C69.5208 41.8993 68.9351 41.3164 68.5423 40.6096H68.4815V46.8877H65.8569V30.0193H68.3974V32.1275H68.4457C68.8566 31.4241 69.4522 30.8442 70.1691 30.4496C70.8861 30.0551 71.6975 29.8605 72.5171 29.8867C75.7622 29.8867 77.9014 32.4297 77.9014 36.3576ZM75.2037 36.3576C75.2037 33.7914 73.8659 32.1043 71.8247 32.1043C69.8194 32.1043 68.4705 33.827 68.4705 36.3576C68.4705 38.9115 69.8194 40.6219 71.8247 40.6219C73.8659 40.6219 75.2037 38.9471 75.2037 36.3576Z" fill="white"/>
<path d="M91.9747 36.3576C91.9747 40.2965 89.848 42.8271 86.6386 42.8271C85.8256 42.8693 85.0171 42.6837 84.3056 42.2915C83.5941 41.8993 83.0084 41.3164 82.6155 40.6095H82.5548V46.8877H79.9302V30.0193H82.4706V32.1275H82.5189C82.9298 31.4241 83.5254 30.8442 84.2423 30.4496C84.9593 30.0551 85.7707 29.8605 86.5903 29.8867C89.8355 29.8867 91.9747 32.4297 91.9747 36.3576ZM89.277 36.3576C89.277 33.7914 87.9391 32.1043 85.898 32.1043C83.8926 32.1043 82.5438 33.827 82.5438 36.3576C82.5438 38.9115 83.8926 40.6219 85.898 40.6219C87.9392 40.6219 89.277 38.9471 89.277 36.3576H89.277Z" fill="white"/>
<path d="M101.276 37.8506C101.47 39.5746 103.16 40.7066 105.469 40.7066C107.681 40.7066 109.272 39.5746 109.272 38.0201C109.272 36.6706 108.312 35.8626 106.04 35.3089L103.767 34.7661C100.546 33.995 99.0512 32.5021 99.0512 30.0794C99.0512 27.0798 101.688 25.0195 105.433 25.0195C109.139 25.0195 111.679 27.0798 111.765 30.0794H109.115C108.956 28.3445 107.51 27.2972 105.395 27.2972C103.281 27.2972 101.834 28.3568 101.834 29.899C101.834 31.1281 102.758 31.8513 105.019 32.405L106.951 32.8753C110.549 33.7188 112.044 35.1517 112.044 37.6946C112.044 40.9471 109.431 42.9843 105.274 42.9843C101.385 42.9843 98.7588 40.995 98.5891 37.8505L101.276 37.8506Z" fill="white"/>
<path d="M117.709 27.0197V30.0193H120.141V32.0797H117.709V39.0674C117.709 40.1529 118.196 40.6588 119.265 40.6588C119.553 40.6538 119.842 40.6337 120.128 40.5986V42.6466C119.648 42.7356 119.159 42.776 118.67 42.7669C116.082 42.7669 115.072 41.8031 115.072 39.3449V32.0797H113.213V30.0193H115.072V27.0197H117.709Z" fill="white"/>
<path d="M121.549 36.3576C121.549 32.3695 123.918 29.8635 127.613 29.8635C131.32 29.8635 133.679 32.3695 133.679 36.3576C133.679 40.3566 131.333 42.8518 127.613 42.8518C123.895 42.8518 121.549 40.3566 121.549 36.3576ZM131.004 36.3576C131.004 33.6219 129.74 32.0072 127.613 32.0072C125.486 32.0072 124.223 33.6342 124.223 36.3576C124.223 39.1043 125.486 40.7066 127.613 40.7066C129.74 40.7066 131.004 39.1043 131.004 36.3576H131.004Z" fill="white"/>
<path d="M135.843 30.0193H138.346V32.1767H138.406C138.576 31.5029 138.974 30.9075 139.534 30.4904C140.094 30.0734 140.782 29.8602 141.482 29.8867C141.785 29.8856 142.086 29.9182 142.381 29.9838V32.4174C141.999 32.3017 141.601 32.2486 141.202 32.2601C140.821 32.2448 140.441 32.3115 140.088 32.4555C139.735 32.5995 139.418 32.8176 139.158 33.0946C138.898 33.3717 138.702 33.7012 138.583 34.0605C138.463 34.4198 138.424 34.8005 138.467 35.1763V42.6945H135.843L135.843 30.0193Z" fill="white"/>
<path d="M154.482 38.9717C154.129 41.2726 151.869 42.8517 148.976 42.8517C145.257 42.8517 142.948 40.3812 142.948 36.4178C142.948 32.442 145.269 29.8635 148.866 29.8635C152.404 29.8635 154.628 32.2724 154.628 36.1156V37.007H145.597V37.1642C145.556 37.6307 145.615 38.1007 145.77 38.5428C145.926 38.985 146.175 39.3893 146.5 39.7289C146.825 40.0684 147.22 40.3355 147.657 40.5123C148.095 40.6892 148.565 40.7717 149.037 40.7545C149.657 40.8121 150.28 40.6697 150.812 40.3485C151.344 40.0273 151.757 39.5444 151.99 38.9717L154.482 38.9717ZM145.61 35.1887H152.002C152.026 34.7692 151.962 34.3495 151.814 33.9558C151.666 33.5621 151.438 33.203 151.143 32.9009C150.849 32.5988 150.494 32.3603 150.103 32.2004C149.711 32.0405 149.29 31.9627 148.866 31.9717C148.439 31.9691 148.015 32.0506 147.62 32.2112C147.224 32.3718 146.865 32.6085 146.562 32.9076C146.259 33.2067 146.019 33.5623 145.856 33.9538C145.692 34.3453 145.609 34.765 145.61 35.1887V35.1887Z" fill="white"/>
<path d="M53.4215 12.2234C53.9718 12.1843 54.5239 12.2667 55.0382 12.4647C55.5524 12.6627 56.0159 12.9713 56.3952 13.3684C56.7745 13.7655 57.0602 14.2411 57.2317 14.7609C57.4031 15.2806 57.4561 15.8317 57.3867 16.3742C57.3867 19.0429 55.9317 20.577 53.4215 20.577H50.3777V12.2234H53.4215ZM51.6865 19.3956H53.2753C53.6685 19.4189 54.062 19.355 54.4271 19.2085C54.7923 19.0621 55.1199 18.8367 55.3861 18.5489C55.6523 18.2612 55.8504 17.9181 55.966 17.5449C56.0816 17.1716 56.1118 16.7775 56.0544 16.3912C56.1077 16.0064 56.0744 15.6148 55.957 15.2442C55.8396 14.8737 55.641 14.5335 55.3754 14.248C55.1098 13.9625 54.7838 13.7388 54.4207 13.5928C54.0577 13.4469 53.6665 13.3824 53.2753 13.4039H51.6865V19.3956Z" fill="white"/>
<path d="M58.8653 17.4221C58.8253 17.0078 58.8731 16.5898 59.0056 16.1949C59.1381 15.8 59.3525 15.4369 59.6348 15.1289C59.9172 14.821 60.2614 14.5749 60.6453 14.4065C61.0293 14.2381 61.4445 14.1511 61.8643 14.1511C62.2841 14.1511 62.6993 14.2381 63.0833 14.4065C63.4672 14.5749 63.8114 14.821 64.0938 15.1289C64.3761 15.4369 64.5905 15.8 64.723 16.1949C64.8555 16.5898 64.9033 17.0078 64.8633 17.4221C64.9041 17.8368 64.8568 18.2554 64.7247 18.6509C64.5925 19.0464 64.3783 19.4102 64.0958 19.7188C63.8134 20.0273 63.4689 20.2739 63.0846 20.4427C62.7003 20.6114 62.2846 20.6986 61.8643 20.6986C61.444 20.6986 61.0283 20.6114 60.644 20.4427C60.2597 20.2739 59.9152 20.0273 59.6328 19.7188C59.3503 19.4102 59.1361 19.0464 59.0039 18.6509C58.8718 18.2554 58.8245 17.8368 58.8653 17.4221ZM63.5724 17.4221C63.5724 16.0556 62.9532 15.2565 61.8664 15.2565C60.7754 15.2565 60.1617 16.0556 60.1617 17.4221C60.1617 18.7995 60.7755 19.5925 61.8664 19.5925C62.9532 19.5925 63.5724 18.794 63.5724 17.4221H63.5724Z" fill="white"/>
<path d="M72.8365 20.5768H71.5345L70.2202 15.9339H70.1209L68.812 20.5768H67.5225L65.7695 14.2727H67.0425L68.1817 19.0831H68.2755L69.583 14.2727H70.787L72.0945 19.0831H72.1938L73.3275 14.2727H74.5825L72.8365 20.5768Z" fill="white"/>
<path d="M76.0567 14.2727H77.2648V15.2742H77.3586C77.5177 14.9145 77.786 14.613 78.1262 14.4117C78.4664 14.2103 78.8615 14.1192 79.2564 14.1511C79.5658 14.128 79.8765 14.1742 80.1654 14.2864C80.4544 14.3985 80.7142 14.5737 80.9256 14.7988C81.137 15.024 81.2946 15.2935 81.3866 15.5872C81.4787 15.881 81.503 16.1915 81.4575 16.4958V20.5768H80.2025V16.8082C80.2025 15.7951 79.7584 15.2913 78.8302 15.2913C78.6201 15.2816 78.4104 15.317 78.2154 15.3952C78.0204 15.4734 77.8448 15.5924 77.7006 15.7441C77.5563 15.8959 77.4469 16.0767 77.3798 16.2743C77.3127 16.4719 77.2894 16.6815 77.3117 16.8889V20.5768H76.0566L76.0567 14.2727Z" fill="white"/>
<path d="M83.4575 11.8118H84.7126V20.5768H83.4575V11.8118Z" fill="white"/>
<path d="M86.4573 17.4221C86.4173 17.0078 86.4652 16.5897 86.5977 16.1948C86.7303 15.7999 86.9446 15.4368 87.227 15.1288C87.5094 14.8209 87.8537 14.5748 88.2376 14.4064C88.6216 14.238 89.0368 14.151 89.4567 14.151C89.8765 14.151 90.2917 14.238 90.6757 14.4064C91.0597 14.5748 91.4039 14.8209 91.6863 15.1288C91.9687 15.4368 92.183 15.7999 92.3156 16.1948C92.4482 16.5897 92.496 17.0078 92.456 17.4221C92.4967 17.8368 92.4494 18.2554 92.3172 18.6509C92.185 19.0464 91.9708 19.4102 91.6883 19.7188C91.4058 20.0273 91.0614 20.2739 90.677 20.4426C90.2927 20.6114 89.877 20.6986 89.4567 20.6986C89.0363 20.6986 88.6206 20.6114 88.2363 20.4426C87.852 20.2739 87.5075 20.0273 87.225 19.7188C86.9425 19.4102 86.7283 19.0464 86.5961 18.6509C86.4639 18.2554 86.4166 17.8368 86.4573 17.4221ZM91.1644 17.4221C91.1644 16.0556 90.5452 15.2565 89.4584 15.2565C88.3674 15.2565 87.7538 16.0556 87.7538 17.4221C87.7538 18.7995 88.3675 19.5925 89.4584 19.5925C90.5452 19.5925 91.1644 18.794 91.1644 17.4221H91.1644Z" fill="white"/>
<path d="M93.7773 18.794C93.7773 17.6593 94.6297 17.0051 96.1426 16.9121L97.8653 16.8137V16.2695C97.8653 15.6037 97.4212 15.2277 96.5633 15.2277C95.8627 15.2277 95.3772 15.4827 95.2379 15.9284H94.0228C94.1511 14.8456 95.1786 14.1511 96.6212 14.1511C98.2156 14.1511 99.1148 14.9379 99.1148 16.2695V20.5769H97.9066V19.6909H97.8073C97.6058 20.0087 97.3228 20.2678 96.9872 20.4417C96.6516 20.6156 96.2754 20.6981 95.8972 20.6807C95.6302 20.7083 95.3604 20.68 95.1051 20.5978C94.8498 20.5157 94.6147 20.3814 94.415 20.2036C94.2153 20.0259 94.0553 19.8086 93.9455 19.5658C93.8357 19.323 93.7784 19.0601 93.7773 18.794ZM97.8653 18.2554V17.7283L96.3123 17.8268C95.4365 17.8849 95.0393 18.1802 95.0393 18.7359C95.0393 19.3033 95.5358 19.6335 96.2186 19.6335C96.4186 19.6536 96.6207 19.6335 96.8127 19.5746C97.0048 19.5157 97.183 19.4191 97.3366 19.2905C97.4903 19.1619 97.6162 19.004 97.7071 18.8262C97.7979 18.6483 97.8517 18.4542 97.8653 18.2554Z" fill="white"/>
<path d="M100.764 17.4221C100.764 15.4301 101.797 14.1682 103.404 14.1682C103.801 14.15 104.196 14.2444 104.541 14.4402C104.886 14.6361 105.168 14.9253 105.354 15.2742H105.448V11.8118H106.703V20.5768H105.5V19.5808H105.401C105.201 19.9273 104.909 20.213 104.557 20.4068C104.205 20.6007 103.806 20.6954 103.404 20.6807C101.786 20.6808 100.764 19.4189 100.764 17.4221ZM102.061 17.4221C102.061 18.7592 102.696 19.5638 103.76 19.5638C104.818 19.5638 105.471 18.7476 105.471 17.4275C105.471 16.1137 104.811 15.2858 103.76 15.2858C102.703 15.2858 102.061 16.0959 102.061 17.4221H102.061Z" fill="white"/>
<path d="M111.896 17.4221C111.856 17.0078 111.903 16.5898 112.036 16.1949C112.168 15.8 112.383 15.4369 112.665 15.1289C112.947 14.821 113.292 14.5749 113.676 14.4065C114.06 14.2381 114.475 14.1511 114.895 14.1511C115.314 14.1511 115.73 14.2381 116.114 14.4065C116.497 14.5749 116.842 14.821 117.124 15.1289C117.406 15.4369 117.621 15.8 117.753 16.1949C117.886 16.5898 117.934 17.0078 117.894 17.4221C117.934 17.8368 117.887 18.2554 117.755 18.6509C117.623 19.0464 117.409 19.4102 117.126 19.7188C116.844 20.0273 116.499 20.2739 116.115 20.4427C115.731 20.6114 115.315 20.6986 114.895 20.6986C114.474 20.6986 114.059 20.6114 113.674 20.4427C113.29 20.2739 112.945 20.0273 112.663 19.7188C112.381 19.4102 112.166 19.0464 112.034 18.6509C111.902 18.2554 111.855 17.8368 111.896 17.4221ZM116.603 17.4221C116.603 16.0556 115.983 15.2565 114.897 15.2565C113.806 15.2565 113.192 16.0556 113.192 17.4221C113.192 18.7995 113.806 19.5925 114.897 19.5925C115.983 19.5925 116.603 18.794 116.603 17.4221Z" fill="white"/>
<path d="M119.578 14.2727H120.786V15.2742H120.88C121.039 14.9145 121.307 14.613 121.647 14.4117C121.987 14.2103 122.382 14.1192 122.777 14.1511C123.087 14.128 123.397 14.1742 123.686 14.2864C123.975 14.3985 124.235 14.5737 124.447 14.7988C124.658 15.024 124.816 15.2935 124.908 15.5872C125 15.881 125.024 16.1915 124.979 16.4958V20.5768H123.723V16.8082C123.723 15.7951 123.279 15.2913 122.351 15.2913C122.141 15.2816 121.931 15.317 121.736 15.3952C121.541 15.4734 121.366 15.5924 121.222 15.7441C121.077 15.8959 120.968 16.0767 120.901 16.2743C120.834 16.4719 120.81 16.6815 120.833 16.8889V20.5768H119.578V14.2727Z" fill="white"/>
<path d="M132.07 12.7032V14.3015H133.448V15.3494H132.07V18.591C132.07 19.2514 132.345 19.5405 132.97 19.5405C133.13 19.54 133.289 19.5304 133.448 19.5118V20.5481C133.223 20.5881 132.995 20.6094 132.766 20.6117C131.37 20.6117 130.814 20.125 130.814 18.9096V15.3494H129.804V14.3014H130.814V12.7032H132.07Z" fill="white"/>
<path d="M135.162 11.8118H136.406V15.2858H136.506C136.673 14.9228 136.948 14.6196 137.295 14.4175C137.642 14.2154 138.044 14.1243 138.445 14.1565C138.753 14.1399 139.06 14.1909 139.346 14.3057C139.632 14.4206 139.888 14.5965 140.097 14.821C140.307 15.0455 140.463 15.3129 140.556 15.6043C140.649 15.8957 140.676 16.2038 140.635 16.5067V20.5768H139.379V16.8136C139.379 15.8067 138.905 15.2967 138.019 15.2967C137.803 15.2792 137.586 15.3086 137.383 15.3829C137.18 15.4572 136.996 15.5745 136.843 15.7267C136.691 15.879 136.574 16.0624 136.5 16.2642C136.426 16.466 136.398 16.6813 136.417 16.895V20.5768H135.162L135.162 11.8118Z" fill="white"/>
<path d="M147.953 18.8747C147.783 19.4509 147.413 19.9492 146.909 20.2826C146.406 20.6161 145.8 20.7633 145.197 20.6985C144.778 20.7095 144.362 20.6299 143.977 20.4654C143.592 20.3009 143.248 20.0553 142.969 19.7457C142.689 19.4361 142.481 19.0699 142.359 18.6726C142.236 18.2752 142.202 17.8562 142.26 17.4446C142.204 17.0318 142.238 16.6119 142.36 16.2133C142.483 15.8148 142.69 15.4469 142.968 15.1346C143.246 14.8223 143.588 14.5729 143.972 14.4032C144.356 14.2335 144.772 14.1475 145.192 14.1511C146.961 14.1511 148.029 15.3495 148.029 17.3291V17.7632H143.538V17.8329C143.519 18.0643 143.548 18.2971 143.624 18.5166C143.701 18.736 143.823 18.9372 143.982 19.1073C144.142 19.2773 144.335 19.4124 144.55 19.504C144.766 19.5955 144.998 19.6415 145.232 19.6389C145.532 19.6746 145.836 19.6211 146.106 19.485C146.375 19.3489 146.598 19.1364 146.745 18.8747L147.953 18.8747ZM143.538 16.8431H146.75C146.766 16.6315 146.737 16.419 146.665 16.2192C146.593 16.0194 146.48 15.8367 146.333 15.6829C146.185 15.5291 146.007 15.4076 145.809 15.3261C145.612 15.2447 145.399 15.2051 145.185 15.21C144.968 15.2073 144.753 15.2477 144.551 15.3288C144.35 15.4099 144.168 15.5301 144.014 15.6823C143.861 15.8345 143.74 16.0156 143.658 16.215C143.576 16.4143 143.535 16.6279 143.538 16.8431H143.538Z" fill="white"/>
</g>
<defs>
<clipPath id="clip0">
<rect width="169" height="56" fill="white"/>
</clipPath>
</defs>
</svg>
