<svg width="36" height="36" viewBox="0 0 36 36" fill="none" xmlns="http://www.w3.org/2000/svg">
<mask id="mask0" mask-type="alpha" maskUnits="userSpaceOnUse" x="9" y="4" width="17" height="28">
<path fill-rule="evenodd" clip-rule="evenodd" d="M25.5 5.25C25.5 4.836 25.1625 4.5 24.75 4.5H21C16.857 4.5 13.5 7.5225 13.5 11.25V15.3H9.75C9.336 15.3 9 15.636 9 16.05V19.95C9 20.364 9.336 20.7 9.75 20.7H13.5V30.75C13.5 31.164 13.836 31.5 14.25 31.5H18.75C19.1625 31.5 19.5 31.164 19.5 30.75V20.7H23.4285C23.766 20.7 24.0615 20.475 24.153 20.151L25.2345 16.251C25.368 15.774 25.008 15.3 24.513 15.3H19.5V11.25C19.5 10.5045 20.1705 9.9 21 9.9H24.75C25.1625 9.9 25.5 9.564 25.5 9.15V5.25Z" fill="white"/>
</mask>
<g mask="url(#mask0)">
<rect width="36" height="36" fill="white"/>
</g>
</svg>
