<svg width="190" height="56" viewBox="0 0 190 56" fill="none" xmlns="http://www.w3.org/2000/svg">
<path d="M182.963 56H7.03704C3.16667 56 0 52.85 0 49V7C0 3.15 3.16667 0 7.03704 0H182.963C186.833 0 190 3.15 190 7V49C190 52.85 186.833 56 182.963 56Z" fill="#262626"/>
<path d="M182.963 1.12C186.228 1.12 188.874 3.752 188.874 7V49C188.874 52.248 186.228 54.88 182.963 54.88H7.03704C3.77185 54.88 1.12593 52.248 1.12593 49V7C1.12593 3.752 3.77185 1.12 7.03704 1.12H182.963ZM182.963 0H7.03704C3.16667 0 0 3.15 0 7V49C0 52.85 3.16667 56 7.03704 56H182.963C186.833 56 190 52.85 190 49V7C190 3.15 186.833 0 182.963 0Z" fill="#A6A6A6"/>
<path d="M66.7393 14.336C66.7393 15.512 66.3874 16.45 65.6837 17.136C64.8956 17.962 63.8541 18.382 62.5874 18.382C61.363 18.382 60.3355 17.962 59.477 17.122C58.6185 16.282 58.1963 15.232 58.1963 14C58.1963 12.754 58.6185 11.718 59.477 10.878C60.3355 10.038 61.363 9.618 62.5874 9.618C63.1926 9.618 63.7696 9.73 64.3185 9.968C64.8674 10.206 65.3037 10.514 65.6415 10.906L64.8956 11.648C64.3326 10.99 63.5726 10.654 62.5874 10.654C61.7007 10.654 60.9267 10.962 60.2793 11.592C59.6319 12.208 59.3081 13.02 59.3081 14.014C59.3081 15.008 59.6319 15.82 60.2793 16.436C60.9267 17.052 61.7007 17.374 62.5874 17.374C63.5304 17.374 64.3185 17.066 64.9519 16.436C65.36 16.03 65.5993 15.456 65.6556 14.728H62.5874V13.72H66.683C66.7111 13.93 66.7393 14.14 66.7393 14.336Z" fill="white" stroke="white" stroke-width="0.2" stroke-miterlimit="10"/>
<path d="M73.2274 10.836H69.3852V13.496H72.8474V14.504H69.3852V17.164H73.2274V18.2H68.3015V9.8H73.2274V10.836V10.836Z" fill="white" stroke="white" stroke-width="0.2" stroke-miterlimit="10"/>
<path d="M77.8014 18.2H76.7177V10.836H74.3533V9.8H80.1518V10.836H77.7873V18.2H77.8014Z" fill="white" stroke="white" stroke-width="0.2" stroke-miterlimit="10"/>
<path d="M84.3601 18.2V9.8H85.4438V18.2H84.3601Z" fill="white" stroke="white" stroke-width="0.2" stroke-miterlimit="10"/>
<path d="M90.257 18.2H89.1733V10.836H86.8088V9.8H92.6074V10.836H90.2429V18.2H90.257Z" fill="white" stroke="white" stroke-width="0.2" stroke-miterlimit="10"/>
<path d="M103.599 17.108C102.769 17.962 101.742 18.382 100.503 18.382C99.2645 18.382 98.2371 17.962 97.4067 17.108C96.5764 16.254 96.1682 15.218 96.1682 14C96.1682 12.782 96.5764 11.732 97.4067 10.892C98.2371 10.038 99.2645 9.618 100.503 9.618C101.727 9.618 102.755 10.038 103.599 10.892C104.43 11.746 104.852 12.782 104.852 14C104.838 15.232 104.43 16.268 103.599 17.108ZM98.2089 16.408C98.8282 17.038 99.6023 17.346 100.503 17.346C101.404 17.346 102.178 17.038 102.797 16.408C103.416 15.778 103.74 14.98 103.74 14C103.74 13.02 103.43 12.222 102.797 11.592C102.178 10.962 101.404 10.654 100.503 10.654C99.6023 10.654 98.8282 10.962 98.2089 11.592C97.5897 12.222 97.266 13.02 97.266 14C97.266 14.98 97.5897 15.778 98.2089 16.408Z" fill="white" stroke="white" stroke-width="0.2" stroke-miterlimit="10"/>
<path d="M106.372 18.2V9.8H107.695L111.804 16.338H111.847L111.804 14.714V9.8H112.888V18.2H111.762L107.47 11.354H107.427L107.47 12.978V18.2H106.372Z" fill="white" stroke="white" stroke-width="0.2" stroke-miterlimit="10"/>
<path d="M95.9007 30.45C92.5933 30.45 89.8911 32.956 89.8911 36.4C89.8911 39.83 92.5933 42.35 95.9007 42.35C99.2082 42.35 101.91 39.83 101.91 36.4C101.91 32.956 99.2082 30.45 95.9007 30.45ZM95.9007 40.012C94.0852 40.012 92.523 38.528 92.523 36.4C92.523 34.258 94.0852 32.788 95.9007 32.788C97.7163 32.788 99.2785 34.258 99.2785 36.4C99.2785 38.528 97.7022 40.012 95.9007 40.012ZM82.7837 30.45C79.4763 30.45 76.7741 32.956 76.7741 36.4C76.7741 39.83 79.4763 42.35 82.7837 42.35C86.0911 42.35 88.7933 39.83 88.7933 36.4C88.7933 32.956 86.0911 30.45 82.7837 30.45ZM82.7837 40.012C80.9682 40.012 79.4059 38.528 79.4059 36.4C79.4059 34.258 80.9682 32.788 82.7837 32.788C84.5993 32.788 86.1615 34.258 86.1615 36.4C86.1615 38.528 84.5993 40.012 82.7837 40.012ZM67.1896 32.284V34.804H73.2696C73.0867 36.218 72.6082 37.268 71.8904 37.982C71.0037 38.864 69.6245 39.83 67.2037 39.83C63.46 39.83 60.5326 36.834 60.5326 33.11C60.5326 29.386 63.46 26.39 67.2037 26.39C69.2163 26.39 70.6941 27.174 71.7778 28.196L73.5652 26.418C72.0452 24.976 70.0326 23.87 67.1896 23.87C62.0667 23.87 57.76 28.014 57.76 33.124C57.76 38.22 62.0667 42.378 67.1896 42.378C69.9622 42.378 72.0452 41.482 73.6778 39.788C75.3526 38.122 75.8733 35.77 75.8733 33.88C75.8733 33.292 75.8311 32.746 75.7326 32.298H67.1896V32.284ZM130.959 34.244C130.467 32.914 128.947 30.45 125.836 30.45C122.754 30.45 120.193 32.858 120.193 36.4C120.193 39.732 122.726 42.35 126.132 42.35C128.876 42.35 130.467 40.684 131.114 39.718L129.073 38.36C128.398 39.354 127.469 40.012 126.132 40.012C124.795 40.012 123.838 39.396 123.233 38.206L131.241 34.916L130.959 34.244ZM122.796 36.232C122.726 33.936 124.584 32.76 125.921 32.76C126.962 32.76 127.849 33.278 128.144 34.02L122.796 36.232ZM116.294 42H118.926V24.5H116.294V42ZM111.987 31.78H111.889C111.298 31.08 110.172 30.45 108.736 30.45C105.739 30.45 102.994 33.068 102.994 36.428C102.994 39.76 105.739 42.364 108.736 42.364C110.158 42.364 111.298 41.734 111.889 41.006H111.973V41.86C111.973 44.142 110.749 45.36 108.779 45.36C107.174 45.36 106.175 44.212 105.767 43.246L103.473 44.198C104.134 45.78 105.879 47.712 108.779 47.712C111.861 47.712 114.464 45.906 114.464 41.51V30.814H111.973V31.78H111.987ZM108.961 40.012C107.146 40.012 105.626 38.5 105.626 36.428C105.626 34.328 107.146 32.802 108.961 32.802C110.749 32.802 112.156 34.342 112.156 36.428C112.17 38.5 110.763 40.012 108.961 40.012ZM143.288 24.5H136.997V42H139.629V35.364H143.302C146.216 35.364 149.073 33.264 149.073 29.932C149.073 26.6 146.187 24.5 143.288 24.5ZM143.344 32.928H139.615V26.922H143.344C145.315 26.922 146.427 28.546 146.427 29.918C146.427 31.29 145.315 32.928 143.344 32.928ZM159.586 30.422C157.686 30.422 155.716 31.262 154.899 33.096L157.236 34.062C157.728 33.096 158.657 32.774 159.628 32.774C160.979 32.774 162.373 33.586 162.387 35.028V35.21C161.908 34.944 160.895 34.538 159.642 34.538C157.123 34.538 154.576 35.91 154.576 38.472C154.576 40.81 156.63 42.322 158.939 42.322C160.698 42.322 161.683 41.538 162.288 40.614H162.373V41.972H164.906V35.266C164.92 32.158 162.584 30.422 159.586 30.422ZM159.262 40.012C158.404 40.012 157.207 39.578 157.207 38.528C157.207 37.184 158.699 36.666 159.994 36.666C161.148 36.666 161.697 36.918 162.387 37.254C162.19 38.864 160.782 40.012 159.262 40.012ZM174.153 30.8L171.141 38.388H171.056L167.932 30.8H165.103L169.79 41.412L167.116 47.306H169.86L177.08 30.8H174.153ZM150.508 42H153.14V24.5H150.508V42Z" fill="white"/>
<path d="M14.6933 10.556C14.2852 10.99 14.0459 11.662 14.0459 12.516V43.484C14.0459 44.352 14.2852 45.024 14.6933 45.444L14.7918 45.542L32.2296 28.21V28V27.79L14.7918 10.458L14.6933 10.556Z" fill="url(#paint0_linear)"/>
<path d="M38.0421 33.992L32.2295 28.21V28V27.79L38.0421 22.008L38.1687 22.078L45.051 25.97C47.0213 27.076 47.0213 28.896 45.051 30.016L38.1687 33.908L38.0421 33.992Z" fill="url(#paint1_linear)"/>
<path d="M38.1687 33.908L32.2294 28L14.6931 45.444C15.3405 46.13 16.4102 46.214 17.6205 45.528L38.1687 33.908Z" fill="url(#paint2_linear)"/>
<path d="M38.1688 22.092L17.6066 10.472C16.3962 9.786 15.3266 9.87001 14.6792 10.556L32.2296 28L38.1688 22.092Z" fill="url(#paint3_linear)"/>
<path opacity="0.2" d="M38.0422 33.782L17.6067 45.332C16.4667 45.976 15.4393 45.934 14.7919 45.346L14.6934 45.444L14.7919 45.542C15.4534 46.13 16.4667 46.172 17.6067 45.528L38.1689 33.908L38.0422 33.782Z" fill="#262626"/>
<path opacity="0.12" d="M14.6933 45.248C14.2852 44.814 14.0459 44.142 14.0459 43.288V43.498C14.0459 44.366 14.2852 45.038 14.6933 45.458L14.7918 45.36L14.6933 45.248Z" fill="#262626"/>
<path opacity="0.12" d="M45.051 29.82L38.0281 33.782L38.1547 33.908L45.037 30.016C46.0222 29.456 46.5147 28.728 46.5147 28C46.4444 28.658 45.9518 29.316 45.051 29.82Z" fill="#262626"/>
<path opacity="0.25" d="M17.6066 10.6682L45.051 26.1802C45.9377 26.6842 46.4443 27.3282 46.5288 28.0002C46.5288 27.2722 46.0362 26.5302 45.051 25.9842L17.6066 10.4722C15.6362 9.36625 14.0317 10.2902 14.0317 12.5302V12.7402C14.0317 10.4862 15.6503 9.56225 17.6066 10.6682Z" fill="white"/>
<defs>
<linearGradient id="paint0_linear" x1="30.681" y1="12.1936" x2="7.186" y2="35.8129" gradientUnits="userSpaceOnUse">
<stop stop-color="#00A0FF"/>
<stop offset="0.00657445" stop-color="#00A1FF"/>
<stop offset="0.2601" stop-color="#00BEFF"/>
<stop offset="0.5122" stop-color="#00D2FF"/>
<stop offset="0.7604" stop-color="#00DFFF"/>
<stop offset="1" stop-color="#00E3FF"/>
</linearGradient>
<linearGradient id="paint1_linear" x1="47.6186" y1="28.002" x2="13.5638" y2="28.002" gradientUnits="userSpaceOnUse">
<stop stop-color="#FFE000"/>
<stop offset="0.4087" stop-color="#FFBD00"/>
<stop offset="0.7754" stop-color="#FFA500"/>
<stop offset="1" stop-color="#FF9C00"/>
</linearGradient>
<linearGradient id="paint2_linear" x1="34.9415" y1="31.2145" x2="3.0803" y2="63.2443" gradientUnits="userSpaceOnUse">
<stop stop-color="#FF3A44"/>
<stop offset="1" stop-color="#C31162"/>
</linearGradient>
<linearGradient id="paint3_linear" x1="10.2702" y1="0.246684" x2="24.4977" y2="14.5493" gradientUnits="userSpaceOnUse">
<stop stop-color="#32A071"/>
<stop offset="0.0685" stop-color="#2DA771"/>
<stop offset="0.4762" stop-color="#15CF74"/>
<stop offset="0.8009" stop-color="#06E775"/>
<stop offset="1" stop-color="#00F076"/>
</linearGradient>
</defs>
</svg>
