<svg width="36" height="36" viewBox="0 0 36 36" fill="none" xmlns="http://www.w3.org/2000/svg">
<g clip-path="url(#clip0)">
<path d="M31.4735 12.4381C31.4102 11.0035 31.1782 10.0172 30.8459 9.16255C30.5031 8.25538 29.9756 7.44319 29.2846 6.76802C28.6094 6.08234 27.7919 5.54954 26.8952 5.21205C26.0356 4.87972 25.0545 4.64773 23.6199 4.58447C22.1746 4.51586 21.7157 4.5 18.05 4.5C14.3842 4.5 13.9254 4.51586 12.4854 4.57912C11.0508 4.64237 10.0645 4.87457 9.21011 5.2067C8.30274 5.54954 7.49055 6.07698 6.81538 6.76802C6.1297 7.44319 5.5971 8.26074 5.25942 9.1574C4.92708 10.0172 4.69509 10.9981 4.63184 12.4327C4.56323 13.878 4.54736 14.3369 4.54736 18.0026C4.54736 21.6684 4.56323 22.1272 4.62648 23.5672C4.68973 25.0018 4.92193 25.9881 5.25426 26.8427C5.5971 27.7499 6.1297 28.5621 6.81538 29.2373C7.49055 29.9229 8.30809 30.4557 9.20475 30.7932C10.0645 31.1256 11.0455 31.3575 12.4803 31.4208C13.92 31.4843 14.3791 31.4999 18.0448 31.4999C21.7106 31.4999 22.1694 31.4843 23.6094 31.4208C25.044 31.3575 26.0303 31.1256 26.8847 30.7932C28.6992 30.0917 30.1338 28.6571 30.8354 26.8427C31.1675 25.9829 31.3997 25.0018 31.463 23.5672C31.5262 22.1272 31.5421 21.6684 31.5421 18.0026C31.5421 14.3369 31.5367 13.878 31.4735 12.4381ZM29.0421 23.4617C28.984 24.7803 28.7625 25.4924 28.5779 25.9671C28.1242 27.1433 27.1907 28.0769 26.0144 28.5306C25.5397 28.7152 24.8225 28.9366 23.509 28.9945C22.0849 29.058 21.6578 29.0737 18.0553 29.0737C14.4528 29.0737 14.0204 29.058 12.6014 28.9945C11.2828 28.9366 10.5708 28.7152 10.0961 28.5306C9.51071 28.3142 8.97791 27.9714 8.54544 27.5231C8.09712 27.0852 7.75428 26.5578 7.53794 25.9724C7.35333 25.4977 7.13185 24.7803 7.07395 23.4671C7.01049 22.043 6.99484 21.6156 6.99484 18.0131C6.99484 14.4106 7.01049 13.9782 7.07395 12.5594C7.13185 11.2408 7.35333 10.5288 7.53794 10.0541C7.75428 9.46851 8.09712 8.93591 8.5508 8.50324C8.98842 8.05491 9.51586 7.71207 10.1014 7.49594C10.5761 7.31133 11.2935 7.08985 12.6068 7.03174C14.0309 6.96849 14.4582 6.95263 18.0605 6.95263C21.6683 6.95263 22.0954 6.96849 23.5144 7.03174C24.833 7.08985 25.5451 7.31133 26.0198 7.49594C26.6051 7.71207 27.1379 8.05491 27.5704 8.50324C28.0187 8.94106 28.3615 9.46851 28.5779 10.0541C28.7625 10.5288 28.984 11.246 29.0421 12.5594C29.1053 13.9835 29.1212 14.4106 29.1212 18.0131C29.1212 21.6156 29.1053 22.0376 29.0421 23.4617Z" fill="white"/>
<path d="M18.0502 11.0667C14.221 11.0667 11.1143 14.1732 11.1143 18.0026C11.1143 21.8319 14.221 24.9385 18.0502 24.9385C21.8795 24.9385 24.9861 21.8319 24.9861 18.0026C24.9861 14.1732 21.8795 11.0667 18.0502 11.0667ZM18.0502 22.5017C15.566 22.5017 13.551 20.4869 13.551 18.0026C13.551 15.5182 15.566 13.5034 18.0502 13.5034C20.5345 13.5034 22.5493 15.5182 22.5493 18.0026C22.5493 20.4869 20.5345 22.5017 18.0502 22.5017V22.5017Z" fill="white"/>
<path d="M26.8798 10.7926C26.8798 11.6868 26.1547 12.4118 25.2603 12.4118C24.3662 12.4118 23.6411 11.6868 23.6411 10.7926C23.6411 9.89817 24.3662 9.17334 25.2603 9.17334C26.1547 9.17334 26.8798 9.89817 26.8798 10.7926V10.7926Z" fill="white"/>
</g>
<defs>
<clipPath id="clip0">
<rect width="27" height="27" fill="white" transform="translate(4.5 4.5)"/>
</clipPath>
</defs>
</svg>
