<svg width="113" height="64" viewBox="0 0 113 64" fill="none" xmlns="http://www.w3.org/2000/svg">
<path fill-rule="evenodd" clip-rule="evenodd" d="M98.1321 42.5678L82.9587 49.6185V31.7091L98.9587 24.2771V41.4371C98.9587 41.9011 98.6441 42.3331 98.1321 42.5678V42.5678ZM62.4335 42.5705C61.9295 42.3358 61.6201 41.9038 61.6255 41.4185V24.2771L77.6255 31.7091V49.6238L62.4335 42.5705ZM79.511 13.5038C79.7537 13.3891 80.023 13.3331 80.2924 13.3331C80.559 13.3331 80.8284 13.3891 81.071 13.5038L95.2817 20.1011L80.2924 27.0665L65.3004 20.1011L79.511 13.5038ZM103.375 19.3571C103.367 19.3358 103.37 19.3118 103.359 19.2904C103.351 19.2691 103.33 19.2558 103.316 19.2344C103.194 19.0318 103.044 18.8531 102.903 18.6664C102.82 18.5758 102.754 18.4744 102.663 18.3971C102.036 17.6611 101.298 17.0131 100.38 16.5891L83.3135 8.66109C83.3109 8.66109 83.3082 8.66109 83.3082 8.65843C81.3909 7.77309 79.1909 7.77576 77.2682 8.66109L60.2095 16.5864C59.2922 17.0104 58.5509 17.6558 57.9242 18.3918C57.8255 18.4744 57.7535 18.5864 57.6655 18.6851C57.5269 18.8638 57.3855 19.0371 57.2682 19.2291C57.2549 19.2531 57.2335 19.2691 57.2229 19.2904C57.2122 19.3144 57.2149 19.3384 57.2042 19.3624C56.6415 20.3278 56.2922 21.4131 56.2922 22.5544V41.3998C56.2709 43.9331 57.7962 46.2904 60.1802 47.4051L77.2442 55.3304C78.2095 55.7811 79.2442 56.0051 80.2815 56.0051C81.3162 56.0051 82.3509 55.7811 83.3135 55.3331L100.372 47.4078C102.751 46.3091 104.29 43.9678 104.292 41.4398V22.5518C104.29 21.4104 103.94 20.3251 103.375 19.3571V19.3571Z" fill="#007FFF"/>
<mask id="mask0" mask-type="alpha" maskUnits="userSpaceOnUse" x="56" y="7" width="49" height="50">
<path fill-rule="evenodd" clip-rule="evenodd" d="M98.1321 42.5678L82.9587 49.6185V31.7091L98.9587 24.2771V41.4371C98.9587 41.9011 98.6441 42.3331 98.1321 42.5678V42.5678ZM62.4335 42.5705C61.9295 42.3358 61.6201 41.9038 61.6255 41.4185V24.2771L77.6255 31.7091V49.6238L62.4335 42.5705ZM79.511 13.5038C79.7537 13.3891 80.023 13.3331 80.2924 13.3331C80.559 13.3331 80.8284 13.3891 81.071 13.5038L95.2817 20.1011L80.2924 27.0665L65.3004 20.1011L79.511 13.5038ZM103.375 19.3571C103.367 19.3358 103.37 19.3118 103.359 19.2904C103.351 19.2691 103.33 19.2558 103.316 19.2344C103.194 19.0318 103.044 18.8531 102.903 18.6664C102.82 18.5758 102.754 18.4744 102.663 18.3971C102.036 17.6611 101.298 17.0131 100.38 16.5891L83.3135 8.66109C83.3109 8.66109 83.3082 8.66109 83.3082 8.65843C81.3909 7.77309 79.1909 7.77576 77.2682 8.66109L60.2095 16.5864C59.2922 17.0104 58.5509 17.6558 57.9242 18.3918C57.8255 18.4744 57.7535 18.5864 57.6655 18.6851C57.5269 18.8638 57.3855 19.0371 57.2682 19.2291C57.2549 19.2531 57.2335 19.2691 57.2229 19.2904C57.2122 19.3144 57.2149 19.3384 57.2042 19.3624C56.6415 20.3278 56.2922 21.4131 56.2922 22.5544V41.3998C56.2709 43.9331 57.7962 46.2904 60.1802 47.4051L77.2442 55.3304C78.2095 55.7811 79.2442 56.0051 80.2815 56.0051C81.3162 56.0051 82.3509 55.7811 83.3135 55.3331L100.372 47.4078C102.751 46.3091 104.29 43.9678 104.292 41.4398V22.5518C104.29 21.4104 103.94 20.3251 103.375 19.3571V19.3571Z" fill="white"/>
</mask>
<g mask="url(#mask0)">
<rect x="48.2915" width="64" height="64" fill="#007FFF"/>
</g>
<path fill-rule="evenodd" clip-rule="evenodd" d="M8 18C8 19.1 8.9 20 10 20L40 20C41.1 20 42 19.1 42 18C42 16.9 41.1 16 40 16L10 16C8.9 16 8 16.9 8 18ZM16 32C16 33.1 16.9 34 18 34H40C41.1 34 42 33.1 42 32C42 30.9 41.1 30 40 30L18 30C16.9 30 16 30.9 16 32ZM26 48C24.9 48 24 47.1 24 46C24 44.9 24.9 44 26 44H40C41.1 44 42 44.9 42 46C42 47.1 41.1 48 40 48H26Z" fill="#007FFF"/>
<mask id="mask1" mask-type="alpha" maskUnits="userSpaceOnUse" x="8" y="16" width="34" height="32">
<path fill-rule="evenodd" clip-rule="evenodd" d="M8 18C8 19.1 8.9 20 10 20L40 20C41.1 20 42 19.1 42 18C42 16.9 41.1 16 40 16L10 16C8.9 16 8 16.9 8 18ZM16 32C16 33.1 16.9 34 18 34H40C41.1 34 42 33.1 42 32C42 30.9 41.1 30 40 30L18 30C16.9 30 16 30.9 16 32ZM26 48C24.9 48 24 47.1 24 46C24 44.9 24.9 44 26 44H40C41.1 44 42 44.9 42 46C42 47.1 41.1 48 40 48H26Z" fill="white"/>
</mask>
<g mask="url(#mask1)">
<rect y="56" width="48" height="48" transform="rotate(-90 0 56)" fill="#007FFF"/>
</g>
</svg>
