<svg width="64" height="64" viewBox="0 0 64 64" fill="none" xmlns="http://www.w3.org/2000/svg">
<path fill-rule="evenodd" clip-rule="evenodd" d="M50.6668 48C50.6668 49.472 49.4722 50.6667 48.0002 50.6667C46.5282 50.6667 45.3335 49.472 45.3335 48C45.3335 46.528 46.5282 45.3333 48.0002 45.3333C49.4722 45.3333 50.6668 46.528 50.6668 48V48ZM32.0002 40H10.6668L10.7095 13.3333H40.0002L39.9575 40H32.0002ZM18.6668 48C18.6668 49.472 17.4722 50.6667 16.0002 50.6667C14.5282 50.6667 13.3335 49.472 13.3335 48C13.3335 46.528 14.5282 45.3333 16.0002 45.3333C17.4722 45.3333 18.6668 46.528 18.6668 48V48ZM53.3335 33.28V40H45.3335V26.8827L53.3335 33.28ZM57.6668 29.9173L45.3335 20.0507V13.3333C45.3335 10.392 43.1655 8 40.4988 8H10.1655C7.5015 8 5.3335 10.392 5.3335 13.3333V40C5.3335 42.328 6.7015 44.2907 8.5895 45.0187C8.21616 45.9413 8.00016 46.944 8.00016 48C8.00016 52.4107 11.5895 56 16.0002 56C20.4108 56 24.0002 52.4107 24.0002 48C24.0002 47.0587 23.8082 46.1707 23.5068 45.3333H32.0002H40.4935C40.1922 46.1707 40.0002 47.0587 40.0002 48C40.0002 52.4107 43.5895 56 48.0002 56C52.4108 56 56.0002 52.4107 56.0002 48C56.0002 47.0587 55.8082 46.1707 55.5068 45.3333H56.0002C57.4748 45.3333 58.6668 44.1413 58.6668 42.6667V32C58.6668 31.1893 58.2988 30.424 57.6668 29.9173V29.9173Z" fill="#007FFF"/>
<mask id="mask0" mask-type="alpha" maskUnits="userSpaceOnUse" x="5" y="8" width="54" height="48">
<path fill-rule="evenodd" clip-rule="evenodd" d="M50.6668 48C50.6668 49.472 49.4722 50.6667 48.0002 50.6667C46.5282 50.6667 45.3335 49.472 45.3335 48C45.3335 46.528 46.5282 45.3333 48.0002 45.3333C49.4722 45.3333 50.6668 46.528 50.6668 48V48ZM32.0002 40H10.6668L10.7095 13.3333H40.0002L39.9575 40H32.0002ZM18.6668 48C18.6668 49.472 17.4722 50.6667 16.0002 50.6667C14.5282 50.6667 13.3335 49.472 13.3335 48C13.3335 46.528 14.5282 45.3333 16.0002 45.3333C17.4722 45.3333 18.6668 46.528 18.6668 48V48ZM53.3335 33.28V40H45.3335V26.8827L53.3335 33.28ZM57.6668 29.9173L45.3335 20.0507V13.3333C45.3335 10.392 43.1655 8 40.4988 8H10.1655C7.5015 8 5.3335 10.392 5.3335 13.3333V40C5.3335 42.328 6.7015 44.2907 8.5895 45.0187C8.21616 45.9413 8.00016 46.944 8.00016 48C8.00016 52.4107 11.5895 56 16.0002 56C20.4108 56 24.0002 52.4107 24.0002 48C24.0002 47.0587 23.8082 46.1707 23.5068 45.3333H32.0002H40.4935C40.1922 46.1707 40.0002 47.0587 40.0002 48C40.0002 52.4107 43.5895 56 48.0002 56C52.4108 56 56.0002 52.4107 56.0002 48C56.0002 47.0587 55.8082 46.1707 55.5068 45.3333H56.0002C57.4748 45.3333 58.6668 44.1413 58.6668 42.6667V32C58.6668 31.1893 58.2988 30.424 57.6668 29.9173V29.9173Z" fill="white"/>
</mask>
<g mask="url(#mask0)">
<rect width="64" height="64" fill="#007FFF"/>
</g>
</svg>
