<svg width="64" height="64" viewBox="0 0 64 64" fill="none" xmlns="http://www.w3.org/2000/svg">
<path d="M29.6266 61.3333C29.3174 61.3329 29.0106 61.2788 28.72 61.1733C28.1593 60.968 27.6837 60.5805 27.3694 60.0728C27.0552 59.5651 26.9204 58.9667 26.9866 58.3733L29.04 39.4666H13.3333C12.8488 39.4673 12.3733 39.3361 11.9579 39.0869C11.5424 38.8378 11.2026 38.4802 10.9751 38.0525C10.7475 37.6248 10.6408 37.1432 10.6663 36.6594C10.6918 36.1757 10.8487 35.708 11.12 35.3066L32.16 3.83994C32.4927 3.34751 32.9804 2.98036 33.5457 2.79677C34.111 2.61318 34.7213 2.62368 35.28 2.82661C35.817 3.02598 36.2755 3.39297 36.5877 3.87325C36.8999 4.35353 37.0491 4.92157 37.0133 5.49328L34.96 24.5333H50.6666C51.1511 24.5325 51.6266 24.6638 52.042 24.9129C52.4575 25.1621 52.7973 25.5197 53.0248 25.9474C53.2524 26.3751 53.3591 26.8567 53.3336 27.3404C53.3081 27.8242 53.1512 28.2919 52.88 28.6933L31.84 60.1599C31.5953 60.5218 31.2656 60.8181 30.8796 61.0227C30.4937 61.2273 30.0634 61.3339 29.6266 61.3333V61.3333ZM18.32 34.1333H32C32.3721 34.1342 32.7399 34.2129 33.0797 34.3645C33.4196 34.516 33.724 34.737 33.9733 35.0133C34.2249 35.2933 34.4144 35.6234 34.5293 35.9819C34.6443 36.3404 34.6819 36.7192 34.64 37.0933L33.44 48.1599L45.6799 29.8666H32C31.6237 29.8689 31.2511 29.7915 30.9069 29.6395C30.5626 29.4876 30.2544 29.2645 30.0025 28.9849C29.7507 28.7053 29.5608 28.3756 29.4455 28.0174C29.3301 27.6592 29.2919 27.2806 29.3333 26.9066L30.5333 15.8399L18.32 34.1333Z" fill="#007FFF"/>
</svg>
