<svg width="36" height="36" viewBox="0 0 36 36" fill="none" xmlns="http://www.w3.org/2000/svg">
<path fill-rule="evenodd" clip-rule="evenodd" d="M12.1154 30.0004C22.9844 30.0004 29.2724 21.5614 29.2724 13.5529C29.2724 13.3324 30.8174 12.0064 31.4789 9.24191C31.6139 8.68091 31.0679 8.23841 30.5534 8.47391C29.2334 9.07991 27.8939 8.59991 27.3119 7.90991C25.0739 5.46941 21.3314 5.35241 18.9509 7.64741C17.4164 9.12791 16.7654 11.3329 17.2409 13.4374C12.2144 13.7959 8.7629 11.4139 5.9249 8.14841C5.5589 7.72391 4.8794 7.94741 4.8029 8.50841C4.3829 11.6314 4.2509 19.2244 11.7749 23.5849C10.4684 25.4629 7.9109 26.5714 5.0639 27.0469C4.4339 27.1534 4.2839 28.0264 4.8599 28.3084C7.1159 29.4184 9.5954 29.9989 12.1154 29.9959" fill="white"/>
<mask id="mask0" mask-type="alpha" maskUnits="userSpaceOnUse" x="4" y="6" width="28" height="25">
<path fill-rule="evenodd" clip-rule="evenodd" d="M12.1154 30.0004C22.9844 30.0004 29.2724 21.5614 29.2724 13.5529C29.2724 13.3324 30.8174 12.0064 31.4789 9.24191C31.6139 8.68091 31.0679 8.23841 30.5534 8.47391C29.2334 9.07991 27.8939 8.59991 27.3119 7.90991C25.0739 5.46941 21.3314 5.35241 18.9509 7.64741C17.4164 9.12791 16.7654 11.3329 17.2409 13.4374C12.2144 13.7959 8.7629 11.4139 5.9249 8.14841C5.5589 7.72391 4.8794 7.94741 4.8029 8.50841C4.3829 11.6314 4.2509 19.2244 11.7749 23.5849C10.4684 25.4629 7.9109 26.5714 5.0639 27.0469C4.4339 27.1534 4.2839 28.0264 4.8599 28.3084C7.1159 29.4184 9.5954 29.9989 12.1154 29.9959" fill="white"/>
</mask>
<g mask="url(#mask0)">
<rect width="36" height="36" fill="white"/>
</g>
</svg>
